<svg xmlns="http://www.w3.org/2000/svg" width="16" height="16" viewBox="0 0 16 16">
  <path id="check" d="M16,8.5a7.968,7.968,0,0,1-1.355,4.441.625.625,0,1,1-1.039-.695,6.733,6.733,0,0,0,.932-5.434A.625.625,0,0,1,15.748,6.5,8.029,8.029,0,0,1,16,8.5Zm-4.508,5.778a6.75,6.75,0,1,1,.34-11.335.625.625,0,0,0,.711-1.028,8,8,0,0,0-10.2,12.243,8,8,0,0,0,9.8,1.19.625.625,0,1,0-.648-1.069ZM8.06,10.313a.356.356,0,0,1-.263-.1L4.524,7.11a.625.625,0,1,0-.86.907l3.273,3.1a1.6,1.6,0,0,0,1.108.443H8.11a1.6,1.6,0,0,0,1.135-.535L9.267,11l6.6-8.2a.625.625,0,0,0-.974-.783L8.305,10.2a.357.357,0,0,1-.245.11Zm0,0" transform="translate(0 -0.501)" fill="#fff"/>
</svg>
