<?xml version="1.0" encoding="utf-8"?>
<!-- Generator: Adobe Illustrator 25.4.1, SVG Export Plug-In . SVG Version: 6.00 Build 0)  -->
<svg version="1.1" id="Layer_1" xmlns="http://www.w3.org/2000/svg" xmlns:xlink="http://www.w3.org/1999/xlink" x="0px" y="0px"
	 viewBox="0 0 22 20.3" style="enable-background:new 0 0 22 20.3;" xml:space="preserve">
<style type="text/css">
	.st0{fill:#FF0000;}
</style>
<path class="st0" d="M21.9,6.6c-0.2-2.1-1.4-4-3.1-5.3c-2.4-1.6-5.5-1.6-7.9,0C9.8,0.6,8.4,0.2,7,0.2C5.3,0.3,3.5,1,2.2,2.2L2,2.4
	c-1.3,1.3-2,3.1-2,5s0.8,3.7,2.2,5l6.5,6.7c0.6,0.7,1.5,1.1,2.5,1.1c0.9,0,1.8-0.4,2.4-1.1l6.5-6.7l0,0C21.6,11,22.3,8.7,21.9,6.6z"
	/>
</svg>
