<svg xmlns="http://www.w3.org/2000/svg" xmlns:xlink="http://www.w3.org/1999/xlink" width="97" height="97" viewBox="0 0 97 97">
  <defs>
    <linearGradient id="linear-gradient" x1="0.5" x2="0.5" y2="1" gradientUnits="objectBoundingBox">
      <stop offset="0" stop-color="#78dba3"/>
      <stop offset="0.547" stop-color="#25a7de"/>
      <stop offset="1" stop-color="#f20587"/>
    </linearGradient>
  </defs>
  <path id="Union_231" data-name="Union 231" d="M2362-5883a48.054,48.054,0,0,1,48-48,48.055,48.055,0,0,1,48,48,48.055,48.055,0,0,1-48,48A48.054,48.054,0,0,1,2362-5883Zm2.949,0A45.137,45.137,0,0,0,2410-5837.879,45.138,45.138,0,0,0,2455.05-5883a45.137,45.137,0,0,0-45.05-45.12A45.136,45.136,0,0,0,2364.949-5883Zm26.05,24,3.348-8.438h2.361v-2.812h2.813V-5898.8a4.224,4.224,0,0,1-2.813-3.977,4.224,4.224,0,0,1,4.22-4.218,4.224,4.224,0,0,1,4.219,4.218,4.225,4.225,0,0,1-2.813,3.977v1.435c1.43.653,3.288,1.6,4.888,1.615,2.615.012,4.1-.788,6.149-1.9a30.006,30.006,0,0,1,9.013-3.413l.025-.006c2.252-.429,6.96-.771,13.175,1.758l3.4,1.384-3.455,1.243a25.508,25.508,0,0,0-7.628,3.957,19.191,19.191,0,0,1,2.676,7.492l.4,2.474-2.321-.945c-2.447-1-3.459-1.409-6.51,1.167l-.052.042c-3.528,2.7-8.377,3.769-13.051,3.769a31.074,31.074,0,0,1-6.71-.732v9.213h2.813v2.812h2.38l3.164,8.438Zm4.143-2.813h11.49l-1.054-2.812h-3.245v-2.813h-2.812v2.813h-3.264Zm7.191-20.541c5.737,1.445,13.469,1.11,18.025-2.359,2.175-1.831,4.193-3.005,6.941-2.409a13.988,13.988,0,0,0-2.368-4.941l-.728-.951.823-.871a19.278,19.278,0,0,1,5.958-3.986,19.041,19.041,0,0,0-8.038-.437,27.242,27.242,0,0,0-8.239,3.131,13.955,13.955,0,0,1-7.429,2.236h-.077a12.524,12.524,0,0,1-4.869-1.332Zm-2.812-20.428a1.408,1.408,0,0,0,1.406,1.407,1.407,1.407,0,0,0,1.405-1.407,1.406,1.406,0,0,0-1.405-1.405A1.407,1.407,0,0,0,2399.521-5902.782Z" transform="translate(-2361.501 5931.5)" stroke="rgba(0,0,0,0)" stroke-width="1" fill="url(#linear-gradient)"/>
</svg>
