<svg xmlns="http://www.w3.org/2000/svg" width="22.01" height="20.306" viewBox="0 0 22.01 20.306">
  <g id="good-feedback" transform="translate(47.275 52.152)">
    <path id="Path_45744" data-name="Path 45744" d="M25.575,18.18l-6.516,6.708a2.429,2.429,0,0,1-1.725.767,2.341,2.341,0,0,1-1.725-.767L9.094,18.18a6.133,6.133,0,0,1,0-8.816A6.9,6.9,0,0,1,13.31,7.639,6.173,6.173,0,0,1,17.143,8.98,6.057,6.057,0,0,1,24.425,8.6a6.407,6.407,0,0,1,2.683,4.6,5.325,5.325,0,0,1-1.533,4.983Z" transform="translate(-53.5 -58.5)" fill="none" stroke="#ada7b7" stroke-width="2"/>
  </g>
</svg>
