<svg xmlns="http://www.w3.org/2000/svg" xmlns:xlink="http://www.w3.org/1999/xlink" width="97" height="97" viewBox="0 0 97 97">
  <defs>
    <linearGradient id="linear-gradient" x1="0.5" x2="0.5" y2="1" gradientUnits="objectBoundingBox">
      <stop offset="0" stop-color="#78dba3"/>
      <stop offset="0.547" stop-color="#25a7de"/>
      <stop offset="1" stop-color="#f20587"/>
    </linearGradient>
  </defs>
  <path id="Union_232" data-name="Union 232" d="M2362-5883a48.054,48.054,0,0,1,48-48,48.055,48.055,0,0,1,48,48,48.055,48.055,0,0,1-48,48A48.054,48.054,0,0,1,2362-5883Zm2.95,0A45.1,45.1,0,0,0,2410-5837.951,45.1,45.1,0,0,0,2455.05-5883a45.1,45.1,0,0,0-45.05-45.05A45.1,45.1,0,0,0,2364.951-5883Zm27.125,23.188a2.78,2.78,0,0,1,.089-1.051,2.818,2.818,0,0,1-2.346-2.483,2.778,2.778,0,0,1,.089-1.051,2.819,2.819,0,0,1-2.346-2.483,2.816,2.816,0,0,1,1.779-2.915,2.8,2.8,0,0,1-.307-1.011l-1.075-10.221a14.585,14.585,0,0,1-2.594-6.756l-1.057-10.05a2.817,2.817,0,0,1,2.5-3.092,2.778,2.778,0,0,1,1.051.089,2.82,2.82,0,0,1,2.483-2.347,2.811,2.811,0,0,1,1.051.091,2.819,2.819,0,0,1,2.481-2.347,2.818,2.818,0,0,1,2.916,1.78,2.768,2.768,0,0,1,1.011-.307l10.221-1.075.8-.512a13.907,13.907,0,0,1,5.954-2.083l10.052-1.057a2.815,2.815,0,0,1,3.09,2.5,2.783,2.783,0,0,1-.089,1.051,2.817,2.817,0,0,1,2.346,2.483,2.778,2.778,0,0,1-.089,1.051,2.817,2.817,0,0,1,2.346,2.481,2.817,2.817,0,0,1-1.779,2.916,2.8,2.8,0,0,1,.306,1.009l1.075,10.223.512.8a14.028,14.028,0,0,1,1.832,4.428.922.922,0,0,1,.131.387l1.176,11.188a2.817,2.817,0,0,1-2.5,3.092,2.781,2.781,0,0,1-1.051-.089,2.818,2.818,0,0,1-2.481,2.346,2.789,2.789,0,0,1-1.052-.089,2.818,2.818,0,0,1-2.481,2.346,2.818,2.818,0,0,1-2.916-1.779,2.8,2.8,0,0,1-1.011.307l-8.356.878-.8.512a13.912,13.912,0,0,1-5.952,2.082l-1.3.137a.939.939,0,0,1-1.03-.835.939.939,0,0,1,.834-1.03l1.3-.135a12.043,12.043,0,0,0,5.143-1.8l.987-.629a.924.924,0,0,1,.406-.142l5.941-.625a2.8,2.8,0,0,1-.258-.916l-.883-8.391-7.645.8a.933.933,0,0,1-.89-.43,5.8,5.8,0,0,0-5.543-2.664l-2.35.247.1.933a.937.937,0,0,1-.835,1.03l-9.324.981a.937.937,0,0,0-.833,1.029.939.939,0,0,0,1.03.835l3.73-.392a.938.938,0,0,1,1.03.835.936.936,0,0,1-.835,1.029l-5.594.588a.942.942,0,0,0-.835,1.032.94.94,0,0,0,1.031.833c1.471-.153,4.745-.5,5.594-.588a.938.938,0,0,1,1.03.835.936.936,0,0,1-.833,1.03l-3.73.392a.94.94,0,0,0-.833,1.031.939.939,0,0,0,1.03.834l3.729-.392a.939.939,0,0,1,1.031.833.939.939,0,0,1-.835,1.031l-1.864.2a.938.938,0,0,0-.835,1.03.938.938,0,0,0,1.03.835l2.248-.237a.938.938,0,0,1,1.03.835.937.937,0,0,1-.835,1.03l-2.246.237a2.761,2.761,0,0,1-.3.016A2.818,2.818,0,0,1,2392.075-5859.812Zm32.232-9.044.588,5.593a.938.938,0,0,0,1.03.835.939.939,0,0,0,.835-1.03l-.588-5.594a.935.935,0,0,1,.833-1.03.935.935,0,0,1,1.03.833l.393,3.73a.936.936,0,0,0,1.03.833.938.938,0,0,0,.834-1.03l-.392-3.73a.939.939,0,0,1,.835-1.03.938.938,0,0,1,1.03.835l.2,1.865a.938.938,0,0,0,1.03.833.938.938,0,0,0,.834-1.03l-1.055-10.052a12.049,12.049,0,0,0-1.8-5.143l-.63-.987a.925.925,0,0,1-.141-.4l-.822-7.806a2.826,2.826,0,0,1-.915.257l-8.391.883.8,7.645a.939.939,0,0,1-.43.89,5.794,5.794,0,0,0-2.664,5.543l.246,2.35.933-.1a.937.937,0,0,1,1.03.833l.981,9.324a.939.939,0,0,0,1.03.835.937.937,0,0,0,.833-1.03l-.391-3.73a.938.938,0,0,1,.835-1.03.963.963,0,0,1,.1,0A.937.937,0,0,1,2424.307-5868.856Zm-37.3-30.2a.937.937,0,0,0-.833,1.03l1.055,10.05a13.233,13.233,0,0,0,2.431,6.129.931.931,0,0,1,.143.406l.82,7.806a2.8,2.8,0,0,1,.916-.259l8.39-.881-.8-7.645a.942.942,0,0,1,.43-.89,5.874,5.874,0,0,0,2.664-5.543l-.246-2.35-.933.1a.938.938,0,0,1-1.03-.835l-.979-9.324a.94.94,0,0,0-1.031-.833.937.937,0,0,0-.833,1.03l.391,3.73a.938.938,0,0,1-.833,1.03.939.939,0,0,1-1.031-.835l-.588-5.594a.939.939,0,0,0-1.03-.835.939.939,0,0,0-.834,1.03c.155,1.471.5,4.747.588,5.6a.938.938,0,0,1-.835,1.03.936.936,0,0,1-1.03-.833l-.393-3.73a.936.936,0,0,0-1.029-.833.936.936,0,0,0-.835,1.03l.392,3.729a.939.939,0,0,1-.835,1.031.937.937,0,0,1-1.029-.835l-.2-1.865a.938.938,0,0,0-.931-.839A1,1,0,0,0,2387.007-5899.059Zm23.927,25.011,5.228-.549-.247-2.351a7.663,7.663,0,0,1,3.037-6.987l-.549-5.228-2.35.247a7.662,7.662,0,0,1-6.987-3.037l-5.228.549.247,2.351a7.666,7.666,0,0,1-3.035,6.987l.549,5.228,2.349-.247a7.941,7.941,0,0,1,.831-.044A7.646,7.646,0,0,1,2410.935-5874.048Zm-.622-19.4a5.875,5.875,0,0,0,5.545,2.664l2.349-.247-.1-.932a.937.937,0,0,1,.835-1.03l9.324-.981a.938.938,0,0,0,.833-1.03.939.939,0,0,0-1.03-.835l-3.73.393a.939.939,0,0,1-1.03-.835.938.938,0,0,1,.835-1.03l5.594-.588a.938.938,0,0,0,.835-1.03.938.938,0,0,0-1.031-.833l-5.594.588a.937.937,0,0,1-1.03-.835.939.939,0,0,1,.833-1.031l3.73-.392a.94.94,0,0,0,.835-1.03.939.939,0,0,0-1.031-.834l-3.73.392a.937.937,0,0,1-1.028-.835.936.936,0,0,1,.833-1.03l1.865-.195a.941.941,0,0,0,.833-1.031.937.937,0,0,0-1.03-.834l-10.052,1.056a13.2,13.2,0,0,0-6.128,2.431.951.951,0,0,1-.406.143l-7.806.82a2.8,2.8,0,0,1,.258.914l.883,8.392,7.645-.8a.952.952,0,0,1,.1-.005A.938.938,0,0,1,2410.313-5893.444Zm-10.095,34.3c-.051-.48.491-.93,1.21-1.006s1.344.251,1.395.732-.493.929-1.212,1a1.913,1.913,0,0,1-.2.011C2400.778-5858.405,2400.262-5858.714,2400.218-5859.147Z" transform="translate(-2361.501 5931.5)" stroke="rgba(0,0,0,0)" stroke-width="1" fill="url(#linear-gradient)"/>
</svg>
