<svg xmlns="http://www.w3.org/2000/svg" width="36" height="36" viewBox="0 0 36 36">
  <g id="heart" transform="translate(0 -0.002)">
    <path id="XMLID_1371_" d="M315.7,88a2.464,2.464,0,0,0-2.461,2.461v3.345a14.638,14.638,0,0,1-.8,4.77,2.538,2.538,0,0,0-3.968.1l-2.608,3.445a5.833,5.833,0,0,0-1.094,4.494l1.032,5.994h-.89a1.408,1.408,0,0,0-1.406,1.406v2.391a1.408,1.408,0,0,0,1.406,1.406h9.281a1.408,1.408,0,0,0,1.406-1.406v-2.391a1.408,1.408,0,0,0-1.406-1.406h-.258l1.576-4.725a.7.7,0,1,0-1.334-.445l-1.725,5.17h-5.223l-1.073-6.232a4.422,4.422,0,0,1,.829-3.406l2.608-3.445a1.131,1.131,0,0,1,1.932,1.149c-.023.043-.045.086-.068.129l-2.6,4.345a.7.7,0,1,0,1.207.721l2.605-4.36c0-.007.089-.159.12-.226a16.055,16.055,0,0,0,1.856-7.477V90.463a1.055,1.055,0,0,1,2.109,0V94.7a30.808,30.808,0,0,1-.751,6.754.7.7,0,1,0,1.372.309,32.216,32.216,0,0,0,.785-7.063V90.463A2.464,2.464,0,0,0,315.7,88Zm-1.511,28.406h-9.282v-2.391h9.281Z" transform="translate(-282.16 -81.812)" fill="#fff"/>
    <path id="XMLID_1377_" d="M13.254,112.577h-.89l1.032-5.994A5.833,5.833,0,0,0,12.3,102.09L9.694,98.644a2.538,2.538,0,0,0-3.968-.1,14.634,14.634,0,0,1-.8-4.77V90.429a2.461,2.461,0,0,0-4.922,0v4.242a32.107,32.107,0,0,0,1.653,10.18l2.578,7.727H3.973a1.408,1.408,0,0,0-1.406,1.406v2.391a1.408,1.408,0,0,0,1.406,1.406h9.281a1.408,1.408,0,0,0,1.406-1.406v-2.391a1.408,1.408,0,0,0-1.406-1.406ZM2.987,104.405a30.7,30.7,0,0,1-1.581-9.735V90.429a1.055,1.055,0,1,1,2.109,0v3.345a16.054,16.054,0,0,0,1.856,7.477c.031.067.116.219.12.226l2.605,4.36a.7.7,0,1,0,1.207-.721l-2.6-4.345c-.023-.043-.045-.086-.068-.129a1.131,1.131,0,0,1,1.933-1.149l2.608,3.445a4.422,4.422,0,0,1,.829,3.406l-1.073,6.232H5.714Zm10.267,11.969H3.973v-2.391h9.281Z" transform="translate(0 -81.781)" fill="#fff"/>
    <path id="XMLID_1382_" d="M115.044,7.539A7.281,7.281,0,0,0,108.068,0a6.709,6.709,0,0,0-4.557,1.83A6.709,6.709,0,0,0,98.954,0a7.281,7.281,0,0,0-6.976,7.537c0,2.391,1.894,5.426,5.63,9.022a55.714,55.714,0,0,0,5.492,4.614.7.7,0,0,0,.82,0,55.7,55.7,0,0,0,5.492-4.614C113.149,12.965,115.044,9.93,115.044,7.539ZM103.511,19.733C100.34,17.377,93.384,11.4,93.384,7.539a5.877,5.877,0,0,1,5.57-6.13,5.293,5.293,0,0,1,4.026,1.9.7.7,0,0,0,1.062,0,5.293,5.293,0,0,1,4.026-1.9,5.877,5.877,0,0,1,5.57,6.13c0,3.861-6.956,9.837-10.127,12.194Z" transform="translate(-85.511)" fill="#fff"/>
    <path id="XMLID_1386_" d="M469.7,314.939a.7.7,0,1,0,.5.206A.708.708,0,0,0,469.7,314.939Z" transform="translate(-436.023 -292.793)" fill="#fff"/>
  </g>
</svg>
