<svg xmlns="http://www.w3.org/2000/svg" width="24" height="24" viewBox="0 0 24 24">
  <g id="icon-pyr-2" transform="translate(-6 -6)">
    <rect id="Image_1058" data-name="Image 1058" width="24" height="24" rx="12" transform="translate(6 6)" fill="#513d7b"/>
    <path id="Union_230" data-name="Union 230" d="M7.8,11.674c-2.014,2.693-5.476,2.5-5.512,5.593C.612,12.675,8.226,11.605,9.02,6.928c4.753,5.679-4.38,9.511-4.38,13.856C3.332,16.4,7.819,13.625,7.8,11.674ZM5.752,0C7.059,4.379,2.571,7.159,2.59,9.109,4.6,6.416,8.066,6.606,8.1,3.517,9.78,8.108,2.165,9.178,1.37,13.856-3.382,8.177,5.752,4.346,5.752,0Z" transform="translate(12.804 7.609)" fill="#fff" stroke="rgba(0,0,0,0)" stroke-width="1"/>
  </g>
</svg>
