<svg xmlns="http://www.w3.org/2000/svg" width="48" height="48" viewBox="0 0 48 48">
  <g id="Group_34110" data-name="Group 34110" transform="translate(-522 -7883)">
    <rect id="Rectangle_8885" data-name="Rectangle 8885" width="48" height="48" transform="translate(522 7883)" fill="none"/>
    <path id="Path_46370" data-name="Path 46370" d="M16.335,81.613a1,1,0,0,1-1-1V73.328a1,1,0,0,1,1-1,1,1,0,0,1,.479.124l6.717,3.675a1,1,0,0,1-.006,1.752l-6.717,3.612A1,1,0,0,1,16.335,81.613Zm.311-1.517L22.4,77l-5.756-3.15Zm2.349,8.462c-.078,0-7.534-.11-9.884-.333l-.061-.008c-.077-.013-.182-.025-.3-.039h-.01A4.838,4.838,0,0,1,5.5,86.737a4.768,4.768,0,0,1-1-1.972,8.89,8.89,0,0,1-.275-1.378l0-.015C4.2,83.119,4,80.8,4,78.437V76.162c0-2.4.214-4.837.223-4.939l0-.026a7.044,7.044,0,0,1,1.268-3.331A4.606,4.606,0,0,1,8.6,66.358l.027,0,.116-.014.046,0C12.832,66.045,18.9,66,18.96,66h.009c.059,0,6.128.041,10.131.331l.046,0,.152.018a4.351,4.351,0,0,1,4.132,3.452,9.108,9.108,0,0,1,.275,1.4v.013c.023.255.222,2.578.223,4.936v2.275c0,2.356-.2,4.682-.223,4.939l0,.026a6.845,6.845,0,0,1-1.268,3.331,4.5,4.5,0,0,1-3.08,1.47l-.174.02-.046,0c-4,.291-10.072.331-10.131.332h-.012Zm-.039-21.247c-.628,0-6.243.054-10.046.327H8.9l-.129.016H8.754a3.325,3.325,0,0,0-2.3,1.092,5.716,5.716,0,0,0-.934,2.6v.01c-.009.1-.216,2.5-.216,4.806v2.275c0,2.319.208,4.713.217,4.813a5.3,5.3,0,0,0,.922,2.587l.014.015a3.578,3.578,0,0,0,2.425,1.026c.139.016.253.029.36.046h.016c2.3.213,9.666.323,9.741.324s6.05-.039,10.019-.327h.012l.185-.021a3.175,3.175,0,0,0,2.254-1.052,5.953,5.953,0,0,0,.934-2.6v-.01c.022-.254.216-2.546.216-4.806V76.162c0-2.339-.208-4.714-.217-4.814a5.374,5.374,0,0,0-.922-2.623l-.005-.006a3.443,3.443,0,0,0-2.328-1.062L29,67.638h-.012c-3.924-.284-9.77-.325-10.017-.327h-.011Z" transform="translate(527 7829.996)" fill="#fff"/>
  </g>
</svg>
