<svg xmlns="http://www.w3.org/2000/svg" width="48" height="48" viewBox="0 0 48 48">
  <g id="icon-Discord" transform="translate(-1.498 -68.954)">
    <rect id="Rectangle_8887" data-name="Rectangle 8887" width="48" height="48" transform="translate(1.498 68.954)" fill="none"/>
    <path id="Path_46368" data-name="Path 46368" d="M19.493-.064l.087.016a26.213,26.213,0,0,1,6.111,1.886l.244.11.121.241A25.014,25.014,0,0,1,30.4,19.14v.444l-.31.225A26.228,26.228,0,0,1,22.6,23.58l-.11.035h-.116a.912.912,0,0,1-.412-.092.8.8,0,0,1-.349-.339,17.509,17.509,0,0,1-1.5-2.46l-.079-.158v-.177q0-.009,0-.019a18.287,18.287,0,0,1-4.837.667,18.353,18.353,0,0,1-4.78-.65.807.807,0,0,1-.119.385,16.789,16.789,0,0,1-1.529,2.489l-.026.033a.891.891,0,0,1-.579.316l-.161.02-.155-.048A25.286,25.286,0,0,1,.406,19.806l-.275-.2-.013-.155-.033-.039-.023-.236a25.823,25.823,0,0,1,.559-8.41l0-.013a27.128,27.128,0,0,1,3.863-8.6l.093-.137.265-.159.041-.018A26.162,26.162,0,0,1,11-.048l.079-.014.08,0a.873.873,0,0,1,.683.372l.022.032.019.034c.19.345.369.7.542,1.07a20.975,20.975,0,0,1,5.732,0c.174-.371.35-.722.532-1.062l.037-.07.051-.061A.9.9,0,0,1,19.4-.059Zm5.381,3.18a24.719,24.719,0,0,0-5.086-1.6c-.169.336-.335.687-.5,1.063l-.236.53-.573-.1a19.483,19.483,0,0,0-6.385,0l-.58.1-.232-.541c-.159-.371-.322-.719-.493-1.053A24.662,24.662,0,0,0,5.622,3.151a25.629,25.629,0,0,0-3.542,7.96,24.322,24.322,0,0,0-.549,7.658A23.778,23.778,0,0,0,7.833,22c.29-.416.559-.848.806-1.291a14.84,14.84,0,0,1-1.691-.859L6.866,19.8,6.8,19.732a.846.846,0,0,1-.26-.748.814.814,0,0,1,.367-.555l.372-.286a.9.9,0,0,1,.551-.232l.187-.011.17.079a16.549,16.549,0,0,0,14.022,0l.071-.033.076-.018a.792.792,0,0,1,.74.212l.021.022c.128.082.253.171.373.265a.808.808,0,0,1,.361.51.852.852,0,0,1-.218.76l-.079.091-.1.061a16.224,16.224,0,0,1-1.65.851c.249.446.52.881.811,1.3a24.723,24.723,0,0,0,6.316-3.2A23.514,23.514,0,0,0,24.873,3.116ZM10.406,9.191h.017a3.3,3.3,0,0,1,2.432,1.146,3.624,3.624,0,0,1,.924,2.532,3.776,3.776,0,0,1-.921,2.566,3.3,3.3,0,0,1-2.435,1.15h-.048a3.3,3.3,0,0,1-2.357-1.149,3.785,3.785,0,0,1-.938-2.567A3.785,3.785,0,0,1,8.01,10.3l.007-.008a3.307,3.307,0,0,1,2.372-1.1Zm.011,5.893a1.8,1.8,0,0,0,1.3-.627,2.283,2.283,0,0,0,.558-1.567v-.05a2.131,2.131,0,0,0-.546-1.507l-.012-.014a1.8,1.8,0,0,0-1.31-.627,1.8,1.8,0,0,0-1.271.594,2.289,2.289,0,0,0-.559,1.562v.037a2.289,2.289,0,0,0,.569,1.566l.007.008A1.8,1.8,0,0,0,10.417,15.085Zm9.692-5.893h.015a3.3,3.3,0,0,1,2.438,1.153,3.9,3.9,0,0,1-.049,5.086,3.131,3.131,0,0,1-2.394,1.154h-.04a3.3,3.3,0,0,1-2.372-1.153,4.011,4.011,0,0,1-.968-2.554V12.86a4.162,4.162,0,0,1,.9-2.537l.036-.042a3.4,3.4,0,0,1,2.418-1.089Zm.011,5.893a1.636,1.636,0,0,0,1.237-.611l.025-.029a2.388,2.388,0,0,0,.039-3.127,1.794,1.794,0,0,0-1.311-.626,1.9,1.9,0,0,0-1.313.587,2.655,2.655,0,0,0-.557,1.587,2.511,2.511,0,0,0,.607,1.59A1.8,1.8,0,0,0,20.12,15.085Z" transform="translate(10.708 81.265)" fill="#fff"/>
  </g>
</svg>
