<svg xmlns="http://www.w3.org/2000/svg" width="48" height="48" viewBox="0 0 48 48">
  <g id="icon-medium" transform="translate(-1.498 -68.954)">
    <rect id="Rectangle_8887" data-name="Rectangle 8887" width="48" height="48" transform="translate(1.498 68.954)" fill="none"/>
    <path id="Path_46360" data-name="Path 46360" d="M7.781-15.36H7.8a8.475,8.475,0,0,1,5.97,2.5l.005.005a8.679,8.679,0,0,1,2.493,6.05v.04a8.679,8.679,0,0,1-2.493,6.05l-.005.005a8.475,8.475,0,0,1-5.97,2.5h-.04A8.525,8.525,0,0,1,1.748-.71L1.743-.715A8.679,8.679,0,0,1-.75-6.765v-.04a8.679,8.679,0,0,1,2.493-6.05l.005-.005a8.525,8.525,0,0,1,6.013-2.5Zm4.9,3.587a6.885,6.885,0,0,0-4.9-2.043,6.935,6.935,0,0,0-4.939,2.043A7.085,7.085,0,0,0,.794-6.785,7.085,7.085,0,0,0,2.842-1.8,6.935,6.935,0,0,0,7.781.245a6.885,6.885,0,0,0,4.9-2.043,7.085,7.085,0,0,0,2.048-4.987A7.085,7.085,0,0,0,12.677-11.772ZM22.3-14.889l.04,0a4.16,4.16,0,0,1,3.382,2.547l.006.011a12.323,12.323,0,0,1,1.2,5.533v.021a12.323,12.323,0,0,1-1.2,5.533l-.006.011a4.16,4.16,0,0,1-3.382,2.547l-.04,0-.04,0a4.083,4.083,0,0,1-3.386-2.552,11.613,11.613,0,0,1-1.2-5.549,11.613,11.613,0,0,1,1.2-5.549,4.083,4.083,0,0,1,3.386-2.552Zm2.062,3.279c-.6-1.106-1.276-1.674-2.063-1.732-.81.059-1.484.624-2.058,1.727l-.006.011a10.108,10.108,0,0,0-1.021,4.819,10.108,10.108,0,0,0,1.021,4.819l.006.011c.574,1.1,1.248,1.668,2.058,1.727.787-.059,1.462-.626,2.063-1.732a10.821,10.821,0,0,0,1.024-4.825A10.821,10.821,0,0,0,24.364-11.61Zm6.069-2.508.057,0c1.049.075,1.453,1.4,1.687,2.544a24.013,24.013,0,0,1,.4,4.784A24.014,24.014,0,0,1,32.177-2C31.943-.856,31.54.468,30.49.543l-.057,0-.057,0c-1-.077-1.392-1.329-1.64-2.544a24.014,24.014,0,0,1-.4-4.784,24.015,24.015,0,0,1,.4-4.788c.248-1.211.637-2.463,1.639-2.541Zm.022,12.633a7.707,7.707,0,0,0,.21-.825,22.518,22.518,0,0,0,.37-4.475,22.517,22.517,0,0,0-.369-4.472,7.743,7.743,0,0,0-.211-.829,8.354,8.354,0,0,0-.207.825,22.518,22.518,0,0,0-.37,4.475,22.517,22.517,0,0,0,.369,4.472A8.394,8.394,0,0,0,30.455-1.485Z" transform="translate(9.777 100.071)" fill="#fff"/>
  </g>
</svg>
