<svg xmlns="http://www.w3.org/2000/svg" width="48" height="48" viewBox="0 0 48 48">
  <g id="icon-Telegram" transform="translate(-1.498 -68.954)">
    <rect id="Rectangle_8887" data-name="Rectangle 8887" width="48" height="48" transform="translate(1.498 68.954)" fill="none"/>
    <path id="Path_46368" data-name="Path 46368" d="M33.515-18.937a2.845,2.845,0,0,1,1.5.453l.086.053.071.073a2.5,2.5,0,0,1,.648,1.167l.024.1v1.255l0,.042c-.145,1.486-.4,3.515-.762,6.032-.36,2.441-.761,4.949-1.193,7.46s-.794,4.632-1.081,6.324l-.009.045c-.191.848-.771,3.429-2.548,3.429-.04,0-.08,0-.12,0a6.047,6.047,0,0,1-3.82-1.507l-.832-.641c-1.217-.809-2.273-1.557-3.14-2.223-.846-.578-1.811-1.2-2.868-1.853l-.032-.02-.03-.023c-.522-.393-2.094-1.576-1.592-2.938a4.276,4.276,0,0,1,1.529-2.138l.551-.565a7.265,7.265,0,0,1,1.3-1.22c1.136-1.093,2.394-2.349,3.742-3.732l.031-.03L25-9.433c-1.651,1.127-4.33,2.982-8.652,6.013l-.008.005a5.671,5.671,0,0,1-3.134,1.15c-.091,0-.182,0-.272-.01a8.268,8.268,0,0,1-2.094-.353c-.9-.274-1.681-.554-2.788-.991-2.47-1.1-2.93-1.094-2.93-2.27v-.06l.008-.059C5.289-7.128,6.6-7.8,7.572-8.217c7.82-3.461,13.1-5.777,15.681-6.882,3.593-1.549,6.082-2.563,7.4-3.014A9.32,9.32,0,0,1,33.515-18.937Zm.567,1.838a1.183,1.183,0,0,0-.566-.159,9.938,9.938,0,0,0-2.313.725l-.024.009c-1.272.435-3.726,1.436-7.295,2.974-2.582,1.1-7.853,3.418-15.671,6.878L8.2-6.667c-1,.425-1.27.512-1.3.778.017.259,1.448.766,1.448.766s2.1.714,2.826.85l.035.006.034.01a6.842,6.842,0,0,0,1.731.3H13l.034,0a3.881,3.881,0,0,0,2.395-.859c9.7-6.8,11.122-7.69,11.5-7.849a1.132,1.132,0,0,1,.469-.1,1.486,1.486,0,0,1,.838.289l.136.093.091.14A1.182,1.182,0,0,1,28.6-10.9a11.9,11.9,0,0,1-2.526,2.738c-1.364,1.4-2.638,2.67-3.788,3.777l-.048.043a9.776,9.776,0,0,0-.994.881l-.034.07-.775.8L20.4-2.57a2.788,2.788,0,0,0-1.015,1.324l-.016.065-.007.017c.032.088.2.417.981,1.013,1.074.662,2.056,1.3,2.919,1.888l.037.027c.846.651,1.885,1.387,3.089,2.187l.046.033.885.682a4.422,4.422,0,0,0,2.841,1.148H30.2l.037,0h.013c.059,0,.179-.1.314-.311a5.9,5.9,0,0,0,.635-1.8c.286-1.69.649-3.812,1.078-6.306s.828-4.993,1.186-7.416c.353-2.464.6-4.453.748-5.91v-.947A.787.787,0,0,0,34.082-17.1Z" transform="translate(4.851 98.735)" fill="#fff"/>
  </g>
</svg>
