<svg xmlns="http://www.w3.org/2000/svg" width="32.931" height="36" viewBox="0 0 32.931 36">
  <g id="magic-ball" transform="translate(-21.827 -0.001)">
    <path id="Path_45445" data-name="Path 45445" d="M332.094,113.674a.527.527,0,0,0-.548.9,9.49,9.49,0,0,1,4.6,8.17.527.527,0,0,0,1.055,0,10.6,10.6,0,0,0-5.108-9.071Z" transform="translate(-287.706 -105.61)" fill="#fff"/>
    <path id="Path_45446" data-name="Path 45446" d="M346.041,3.57a.832.832,0,0,0,1.472,0,1.91,1.91,0,0,1,.825-.823.826.826,0,0,0,0-1.468,1.91,1.91,0,0,1-.827-.828.821.821,0,0,0-1.464,0,1.911,1.911,0,0,1-.827.829.826.826,0,0,0,0,1.468A1.911,1.911,0,0,1,346.041,3.57Zm.736-2.3a2.991,2.991,0,0,0,.739.738,2.989,2.989,0,0,0-.739.739,2.99,2.99,0,0,0-.739-.739A2.991,2.991,0,0,0,346.777,1.275Z" transform="translate(-300.235 0)" fill="#fff"/>
    <path id="Path_45447" data-name="Path 45447" d="M42.452,358.416a1.911,1.911,0,0,1-.827.828.826.826,0,0,0,0,1.468,1.91,1.91,0,0,1,.825.823.832.832,0,0,0,1.472,0,1.91,1.91,0,0,1,.825-.823.826.826,0,0,0,0-1.468h0a1.911,1.911,0,0,1-.827-.828.821.821,0,0,0-1.464,0Zm1.471,1.563a2.989,2.989,0,0,0-.739.739,2.99,2.99,0,0,0-.739-.739,2.991,2.991,0,0,0,.739-.738A2.987,2.987,0,0,0,43.923,359.98Z" transform="translate(-17.989 -332.796)" fill="#fff"/>
    <path id="Path_45448" data-name="Path 45448" d="M421.968,62.543a.924.924,0,0,0,1.633,0,2.651,2.651,0,0,1,1.145-1.142.917.917,0,0,0,0-1.628,2.65,2.65,0,0,1-1.147-1.149.91.91,0,0,0-1.623,0,2.65,2.65,0,0,1-1.147,1.149.917.917,0,0,0,0,1.629A2.65,2.65,0,0,1,421.968,62.543Zm.817-3.21a3.724,3.724,0,0,0,1.255,1.255,3.725,3.725,0,0,0-1.256,1.256,3.725,3.725,0,0,0-1.255-1.256A3.725,3.725,0,0,0,422.784,59.333Z" transform="translate(-370.482 -54.037)" fill="#fff"/>
    <path id="Path_45449" data-name="Path 45449" d="M23.171,291.323a.527.527,0,0,0-.527.527v.289h-.289a.527.527,0,0,0,0,1.055h.289v.289a.527.527,0,1,0,1.055,0v-.289h.289a.527.527,0,0,0,0-1.055H23.7v-.289A.527.527,0,0,0,23.171,291.323Z" transform="translate(0 -270.838)" fill="#fff"/>
    <path id="Path_45450" data-name="Path 45450" d="M78.268,71.211A13.113,13.113,0,0,0,82.9,81.2a1.225,1.225,0,0,0-.536,1.012v.822A1.288,1.288,0,0,0,81.313,84.3v2.654a1.227,1.227,0,0,0-1.122,1.221V88.8a1.227,1.227,0,0,0,1.226,1.226h8.715a.527.527,0,1,0,0-1.055H81.417a.171.171,0,0,1-.171-.171v-.629a.171.171,0,0,1,.171-.171h19.89a.171.171,0,0,1,.171.171V88.8a.171.171,0,0,1-.171.171H92.593a.527.527,0,0,0,0,1.055h8.715a1.227,1.227,0,0,0,1.226-1.226v-.629a1.227,1.227,0,0,0-1.122-1.221V84.3a1.288,1.288,0,0,0-1.051-1.264v-.822a1.225,1.225,0,0,0-.536-1.013,13.055,13.055,0,0,0,4.575-8.757.527.527,0,0,0-1.05-.1,12.013,12.013,0,0,1-4.962,8.642H84.338a12.04,12.04,0,1,1,19-11,.527.527,0,1,0,1.049-.106,13.095,13.095,0,0,0-26.122,1.329Zm4.1,15.739V84.3a.235.235,0,0,1,.232-.232h17.525a.235.235,0,0,1,.232.232v2.649Zm16.767-4.907a.171.171,0,0,1,.171.171v.8H83.419v-.8a.171.171,0,0,1,.171-.171Z" transform="translate(-52.472 -54.03)" fill="#fff"/>
  </g>
</svg>
