<svg xmlns="http://www.w3.org/2000/svg" width="16" height="14.078" viewBox="0 0 16 14.078">
  <g id="polygon" transform="translate(-12 -16.677)">
    <path id="Path_45521" data-name="Path 45521" d="M24.115,20.98a1.064,1.064,0,0,0-1,0l-2.339,1.379-1.587.877-2.3,1.379a1.064,1.064,0,0,1-1,0l-1.8-1.086a1.018,1.018,0,0,1-.5-.877V20.562a1.03,1.03,0,0,1,.5-.877l1.8-1.044a1.064,1.064,0,0,1,1,0l1.8,1.086a1.018,1.018,0,0,1,.5.877v1.379l1.587-.919v-1.42a1.03,1.03,0,0,0-.5-.877L16.93,16.8a1.064,1.064,0,0,0-1,0L12.5,18.808a.919.919,0,0,0-.5.836V23.57a1.03,1.03,0,0,0,.5.877l3.384,1.963a1.064,1.064,0,0,0,1,0l2.3-1.337,1.587-.919,2.3-1.337a1.064,1.064,0,0,1,1,0l1.8,1.044a1.018,1.018,0,0,1,.5.877v2.089a1.03,1.03,0,0,1-.5.877L24.115,28.75a1.064,1.064,0,0,1-1,0l-1.8-1.044a1.018,1.018,0,0,1-.5-.877V25.492l-1.587.919V27.79a1.03,1.03,0,0,0,.5.877l3.384,1.963a1.064,1.064,0,0,0,1,0L27.5,28.667a1.018,1.018,0,0,0,.5-.877V23.821a1.03,1.03,0,0,0-.5-.877Z" transform="translate(0 0)" fill="#8247e5"/>
  </g>
</svg>
