<svg version="1.1" id="Layer_1" xmlns="http://www.w3.org/2000/svg" xmlns:xlink="http://www.w3.org/1999/xlink" x="0px" y="0px"
	 width="100%" viewBox="0 0 1024 1024" enable-background="new 0 0 1024 1024" xml:space="preserve">
<path fill="#020003" opacity="1.000000" stroke="none" 
	d="
M651.000000,1025.000000 
	C434.000000,1025.000000 217.500000,1025.000000 1.000000,1025.000000 
	C1.000000,683.666687 1.000000,342.333344 1.000000,1.000000 
	C342.333344,1.000000 683.666687,1.000000 1025.000000,1.000000 
	C1025.000000,342.333344 1025.000000,683.666687 1025.000000,1025.000000 
	C900.500000,1025.000000 776.000000,1025.000000 651.000000,1025.000000 
M353.881195,811.590698 
	C361.035614,819.458801 367.560791,827.727783 376.143097,834.453430 
	C390.695343,845.857300 406.078247,855.689697 422.915283,863.040955 
	C438.170929,869.701721 454.075500,874.596008 470.575378,877.491638 
	C485.658020,880.138672 500.775452,882.152710 516.101440,881.769714 
	C524.830505,881.551575 533.609558,881.245850 542.250916,880.106140 
	C554.213745,878.528442 566.121155,876.389465 577.949463,873.985107 
	C585.293335,872.492188 592.731567,870.752808 599.625061,867.907166 
	C612.843567,862.450562 625.818481,856.362183 638.685730,850.106567 
	C656.414001,841.487732 669.731506,827.655518 682.291992,812.828003 
	C685.507874,809.031616 686.930298,802.405945 693.294312,802.901428 
	C694.727905,800.496521 696.106567,798.567383 697.098328,796.456421 
	C702.669495,784.598022 708.168091,772.705322 713.652344,760.806274 
	C721.320496,744.168945 725.304016,726.340149 728.500610,708.550781 
	C730.983826,694.731323 731.104736,680.379456 731.198059,666.257080 
	C731.597839,605.803833 731.618774,545.348022 731.734985,484.892975 
	C731.785278,458.730194 731.739746,432.567169 731.709534,406.404297 
	C731.707275,404.412750 731.594177,402.406250 731.331909,400.433380 
	C730.828003,396.644073 730.180054,392.873901 729.593506,389.106171 
	C743.489807,387.276184 756.139099,383.474060 779.242554,369.890381 
	C794.699463,360.802490 806.524719,347.711914 818.133789,334.380066 
	C834.575684,315.498077 846.475403,296.016785 845.417542,289.215729 
	C811.136230,300.132233 776.125244,302.574341 740.383423,300.239807 
	C705.144958,297.938080 672.294006,287.765320 640.109009,273.691528 
	C640.109009,324.027466 640.123657,374.002594 640.104980,423.977722 
	C640.085388,476.301514 640.366089,528.628235 639.901001,580.948242 
	C639.452209,631.438416 642.759827,682.010010 637.106140,732.400696 
	C636.322937,739.381409 635.835938,746.524780 633.912659,753.219543 
	C630.603394,764.738770 626.483643,776.042542 622.322754,787.295776 
	C614.867004,807.459778 601.293701,823.623230 586.564819,838.612549 
	C577.265076,848.076660 565.908020,855.167419 553.475586,860.547913 
	C533.995117,868.978516 514.390381,869.068665 494.219116,863.854675 
	C482.510681,860.828125 473.341461,853.409973 463.552704,847.107239 
	C458.505951,843.857788 454.489197,839.048889 449.600708,835.505127 
	C438.087250,827.158508 430.455719,815.487915 424.376831,803.326294 
	C417.460144,789.488525 412.224945,774.672852 407.640930,759.854736 
	C404.584717,749.975342 403.886383,739.357666 402.259094,729.050476 
	C401.772186,725.966614 401.627991,722.819580 401.473969,719.694275 
	C401.220581,714.552856 401.376099,709.374084 400.819153,704.269897 
	C400.298889,699.501770 398.282928,694.811218 398.277863,690.085022 
	C398.135406,557.100830 398.164795,424.116486 398.165985,291.132172 
	C398.166016,287.150757 398.165985,283.169312 398.165985,277.474060 
	C366.513031,289.621307 334.920074,298.760162 301.851166,301.064331 
	C267.939850,303.427216 234.477142,300.150391 200.292542,290.402679 
	C222.454529,340.596069 258.349365,372.777679 309.717041,388.139496 
	C309.717041,423.243652 309.757629,458.706909 309.700256,494.170044 
	C309.670685,512.441833 309.367340,530.713318 309.369202,548.984924 
	C309.371063,567.604980 309.593353,586.224976 309.723358,604.845032 
	C309.912048,631.869568 309.848785,658.899292 310.395050,685.916626 
	C310.703125,701.156311 312.550385,716.325378 316.662415,731.067444 
	C319.496246,741.227234 322.285797,751.471375 326.171600,761.250061 
	C333.190552,778.913025 342.193207,795.606750 353.881195,811.590698 
M557.878540,180.563629 
	C543.936462,147.805664 534.676636,113.551880 525.540405,79.549339 
	C514.205933,140.165771 492.075562,196.294418 452.417908,244.767258 
	C454.701721,247.032074 456.609406,249.784714 459.225555,251.363327 
	C468.590759,257.014404 473.855377,265.444519 478.018188,275.308044 
	C484.905640,291.627411 492.669556,307.576874 500.067535,323.680634 
	C506.875000,338.499207 513.622803,353.345673 520.531738,368.116760 
	C522.958862,373.305878 525.786194,378.307800 528.861572,384.223907 
	C531.738892,381.538422 534.035828,380.247314 535.052673,378.290924 
	C538.567566,371.528168 541.709717,364.566895 544.858643,357.619965 
	C550.138672,345.971680 554.621521,333.899658 560.709045,322.695587 
	C568.419678,308.504181 572.311279,293.256866 576.128784,277.832642 
	C578.446716,268.467285 581.773926,259.543793 589.761414,253.096008 
	C592.949219,250.522644 595.412598,247.051773 598.359253,243.821167 
	C579.708862,225.570755 567.773438,204.150055 557.878540,180.563629 
z"/>
<path fill="#FDFDFC" opacity="1.000000" stroke="none" 
	d="
M353.655792,811.304199 
	C342.193207,795.606750 333.190552,778.913025 326.171600,761.250061 
	C322.285797,751.471375 319.496246,741.227234 316.662415,731.067444 
	C312.550385,716.325378 310.703125,701.156311 310.395050,685.916626 
	C309.848785,658.899292 309.912048,631.869568 309.723358,604.845032 
	C309.593353,586.224976 309.371063,567.604980 309.369202,548.984924 
	C309.367340,530.713318 309.670685,512.441833 309.700256,494.170044 
	C309.757629,458.706909 309.717041,423.243652 309.717041,388.139496 
	C258.349365,372.777679 222.454529,340.596069 200.292542,290.402679 
	C234.477142,300.150391 267.939850,303.427216 301.851166,301.064331 
	C334.920074,298.760162 366.513031,289.621307 398.165985,277.474060 
	C398.165985,283.169312 398.166016,287.150757 398.165985,291.132172 
	C398.164795,424.116486 398.135406,557.100830 398.277863,690.085022 
	C398.282928,694.811218 400.298889,699.501770 400.819153,704.269897 
	C401.376099,709.374084 401.220581,714.552856 401.473969,719.694275 
	C401.627991,722.819580 401.772186,725.966614 402.259094,729.050476 
	C403.886383,739.357666 404.584717,749.975342 407.640930,759.854736 
	C412.224945,774.672852 417.460144,789.488525 424.376831,803.326294 
	C430.455719,815.487915 438.087250,827.158508 449.600708,835.505127 
	C454.489197,839.048889 458.505951,843.857788 463.552704,847.107239 
	C473.341461,853.409973 482.510681,860.828125 494.219116,863.854675 
	C514.390381,869.068665 533.995117,868.978516 553.475586,860.547913 
	C565.908020,855.167419 577.265076,848.076660 586.564819,838.612549 
	C601.293701,823.623230 614.867004,807.459778 622.322754,787.295776 
	C626.483643,776.042542 630.603394,764.738770 633.912659,753.219543 
	C635.835938,746.524780 636.322937,739.381409 637.106140,732.400696 
	C642.759827,682.010010 639.452209,631.438416 639.901001,580.948242 
	C640.366089,528.628235 640.085388,476.301514 640.104980,423.977722 
	C640.123657,374.002594 640.109009,324.027466 640.109009,273.691528 
	C672.294006,287.765320 705.144958,297.938080 740.383423,300.239807 
	C776.125244,302.574341 811.136230,300.132233 845.417542,289.215729 
	C846.475403,296.016785 834.575684,315.498077 818.133789,334.380066 
	C806.524719,347.711914 794.699463,360.802490 779.242554,369.890381 
	C756.139099,383.474060 743.489807,387.276184 729.593506,389.106171 
	C730.180054,392.873901 730.828003,396.644073 731.331909,400.433380 
	C731.594177,402.406250 731.707275,404.412750 731.709534,406.404297 
	C731.739746,432.567169 731.785278,458.730194 731.734985,484.892975 
	C731.618774,545.348022 731.597839,605.803833 731.198059,666.257080 
	C731.104736,680.379456 730.983826,694.731323 728.500610,708.550781 
	C725.304016,726.340149 721.320496,744.168945 713.652344,760.806274 
	C708.168091,772.705322 702.669495,784.598022 697.098328,796.456421 
	C696.106567,798.567383 694.727905,800.496521 693.294312,802.901428 
	C686.930298,802.405945 685.507874,809.031616 682.291992,812.828003 
	C669.731506,827.655518 656.414001,841.487732 638.685730,850.106567 
	C625.818481,856.362183 612.843567,862.450562 599.625061,867.907166 
	C592.731567,870.752808 585.293335,872.492188 577.949463,873.985107 
	C566.121155,876.389465 554.213745,878.528442 542.250916,880.106140 
	C533.609558,881.245850 524.830505,881.551575 516.101440,881.769714 
	C500.775452,882.152710 485.658020,880.138672 470.575378,877.491638 
	C454.075500,874.596008 438.170929,869.701721 422.915283,863.040955 
	C406.078247,855.689697 390.695343,845.857300 376.143097,834.453430 
	C367.560791,827.727783 361.035614,819.458801 353.655792,811.304199 
z"/>
<path fill="#FDFCFC" opacity="1.000000" stroke="none" 
	d="
M558.024170,180.908569 
	C567.773438,204.150055 579.708862,225.570755 598.359253,243.821167 
	C595.412598,247.051773 592.949219,250.522644 589.761414,253.096008 
	C581.773926,259.543793 578.446716,268.467285 576.128784,277.832642 
	C572.311279,293.256866 568.419678,308.504181 560.709045,322.695587 
	C554.621521,333.899658 550.138672,345.971680 544.858643,357.619965 
	C541.709717,364.566895 538.567566,371.528168 535.052673,378.290924 
	C534.035828,380.247314 531.738892,381.538422 528.861572,384.223907 
	C525.786194,378.307800 522.958862,373.305878 520.531738,368.116760 
	C513.622803,353.345673 506.875000,338.499207 500.067535,323.680634 
	C492.669556,307.576874 484.905640,291.627411 478.018188,275.308044 
	C473.855377,265.444519 468.590759,257.014404 459.225555,251.363327 
	C456.609406,249.784714 454.701721,247.032074 452.417908,244.767258 
	C492.075562,196.294418 514.205933,140.165771 525.540405,79.549339 
	C534.676636,113.551880 543.936462,147.805664 558.024170,180.908569 
z"/>
</svg>