<svg xmlns="http://www.w3.org/2000/svg" width="16" height="16" viewBox="0 0 16 16">
  <g id="upcoming" transform="translate(-2 -2)">
    <path id="Path_45507" data-name="Path 45507" d="M6,2a.8.8,0,0,1,.8.8v.8h6.4V2.8a.8.8,0,1,1,1.6,0v.8h.8A2.4,2.4,0,0,1,18,6v5.6a.8.8,0,1,1-1.6,0V8.4H3.6v7.2a.8.8,0,0,0,.8.8h4a.8.8,0,1,1,0,1.6h-4A2.4,2.4,0,0,1,2,15.6V6A2.4,2.4,0,0,1,4.4,3.6h.8V2.8A.8.8,0,0,1,6,2ZM4.4,5.2a.8.8,0,0,0-.8.8v.8H16.4V6a.8.8,0,0,0-.8-.8Z" fill="#fff" fill-rule="evenodd"/>
    <path id="Path_45508" data-name="Path 45508" d="M18.234,17.366a.8.8,0,0,1,1.131-1.131l1.6,1.6a.8.8,0,0,1,0,1.131l-1.6,1.6a.8.8,0,0,1-1.131-1.131L19.269,18.4Z" transform="translate(-3.2 -2.8)" fill="#fff"/>
    <path id="Path_45509" data-name="Path 45509" d="M13.234,16.234a.8.8,0,0,0,0,1.131L14.269,18.4l-1.034,1.034a.8.8,0,0,0,1.131,1.131l1.6-1.6a.8.8,0,0,0,0-1.131l-1.6-1.6A.8.8,0,0,0,13.234,16.234Z" transform="translate(-2.2 -2.8)" fill="#fff"/>
  </g>
</svg>
