<svg xmlns="http://www.w3.org/2000/svg" width="36" height="22.858" viewBox="0 0 36 22.858">
  <g id="group" transform="translate(0 -92.25)">
    <g id="Group_22711" data-name="Group 22711" transform="translate(0 92.25)">
      <path id="Path_45444" data-name="Path 45444" d="M31.135,102.308a4.11,4.11,0,1,0-4.715,0,7.121,7.121,0,0,0-2.429,1.425,9.215,9.215,0,0,0-3.334-1.816,5.207,5.207,0,1,0-5.385,0,9.292,9.292,0,0,0-3.3,1.8,7.179,7.179,0,0,0-2.4-1.4,4.11,4.11,0,1,0-4.715,0A7.214,7.214,0,0,0,0,109.132v.47a.031.031,0,0,0,.028.028H8.74a9.581,9.581,0,0,0-.078,1.2v.484a3.788,3.788,0,0,0,3.789,3.789H23.492a3.788,3.788,0,0,0,3.789-3.789v-.484a9.58,9.58,0,0,0-.078-1.2h8.769A.031.031,0,0,0,36,109.6v-.47A7.242,7.242,0,0,0,31.135,102.308Zm-5.328-3.369a2.97,2.97,0,1,1,3.027,2.97H28.72A2.966,2.966,0,0,1,25.807,98.939ZM13.883,97.457a4.067,4.067,0,1,1,4.3,4.06h-.47A4.073,4.073,0,0,1,13.883,97.457ZM4.224,98.939a2.97,2.97,0,1,1,3.027,2.97H7.137A2.971,2.971,0,0,1,4.224,98.939Zm4.715,9.545H1.154a6.086,6.086,0,0,1,6-5.435h.085a6.023,6.023,0,0,1,3.882,1.446A9.353,9.353,0,0,0,8.939,108.483Zm17.188,2.835a2.654,2.654,0,0,1-2.65,2.65H12.437a2.654,2.654,0,0,1-2.65-2.65v-.484a8.182,8.182,0,0,1,7.928-8.17c.078.007.164.007.242.007s.164,0,.242-.007a8.182,8.182,0,0,1,7.928,8.17Zm.848-2.835a9.328,9.328,0,0,0-2.158-3.96,6.052,6.052,0,0,1,3.918-1.474h.085a6.086,6.086,0,0,1,6,5.435Z" transform="translate(0 -92.25)" fill="#fff"/>
    </g>
  </g>
</svg>
