<svg xmlns="http://www.w3.org/2000/svg" width="36" height="35.993" viewBox="0 0 36 35.993">
  <g id="worldwide" transform="translate(0 -0.05)">
    <g id="Group_22709" data-name="Group 22709" transform="translate(0 0.05)">
      <path id="Path_45443" data-name="Path 45443" d="M18.006.05A18,18,0,0,0,1.46,10.963l-.224.074.087.261A17.995,17.995,0,1,0,18.006.05ZM32.122,27.12,31.2,26.2V24.045a.6.6,0,0,0-.06-.268L28.8,19.1V16.846a.6.6,0,0,0-.267-.5l-1.8-1.2a.6.6,0,0,0-.48-.083l-2.2.551-3.7-1.588-.509-3.568,1.412-1.411h3.03l1.02,1.533a.6.6,0,0,0,.4.259l3.6.6a.6.6,0,0,0,.288-.023l3.315-1.1A16.736,16.736,0,0,1,32.122,27.12ZM29.648,5.961l-.975.65-2.719-.544L24.189,5.48a.589.589,0,0,0-.335-.013l-2.23.557L20.647,5.7l.725-1.449H23.4a.6.6,0,0,0,.268-.063l2.076-1.038A16.858,16.858,0,0,1,29.648,5.961ZM11.431,2.589l1.44.96a.6.6,0,0,0,.235.092l2.907.485-.284.849-1.515.506a.6.6,0,0,0-.325.26L12.166,8.611,9.4,10.272l-4.079.582a.6.6,0,0,0-.516.593v1.8a.6.6,0,0,0,.176.424L6,14.7v1.031l-2.5-1.664L2.6,11.346A16.893,16.893,0,0,1,11.431,2.589ZM9.723,22.257l-2.711-.543L6,19.7v-1.41l2.235-2.235.827,1.655a.6.6,0,0,0,.537.332h3.86l1.625,2.708a.6.6,0,0,0,.514.291h1.668l-.42,2.1-2.271,2.271a.6.6,0,0,0-.176.424v1.5l-2.16,1.62a.6.6,0,0,0-.24.48v2.167l-.746-.247L10.2,28.729V22.845A.6.6,0,0,0,9.723,22.257Zm-1.8,9.222A16.792,16.792,0,0,1,1.937,13.142l.5,1.495a.6.6,0,0,0,.236.31l2.99,1.993-.682.683a.6.6,0,0,0-.176.424v1.8a.6.6,0,0,0,.063.268l1.2,2.4a.6.6,0,0,0,.42.32l2.519.5v5.507a.6.6,0,0,0,.043.223l1.2,3a.6.6,0,0,0,.368.346l1.8.6a.589.589,0,0,0,.187.031.6.6,0,0,0,.6-.6v-2.7l2.16-1.62a.6.6,0,0,0,.24-.48V26.093l2.224-2.224a.6.6,0,0,0,.164-.307l.6-3A.6.6,0,0,0,18,19.846h-2.06l-1.625-2.708a.6.6,0,0,0-.514-.291H9.974L8.943,14.779a.6.6,0,0,0-.441-.324.588.588,0,0,0-.52.168L7.2,15.4v-.951a.6.6,0,0,0-.176-.424L6,13V11.968l3.684-.526a.6.6,0,0,0,.224-.08l3-1.8a.6.6,0,0,0,.205-.205L14.8,6.548l1.589-.53a.594.594,0,0,0,.379-.379l.6-1.8a.6.6,0,0,0-.47-.78L13.428,2.48l-.61-.407A16.75,16.75,0,0,1,24.354,2.5l-1.1.547H21a.6.6,0,0,0-.54.332l-1.2,2.4a.6.6,0,0,0,.347.837l1.8.6a.589.589,0,0,0,.335.013l2.23-.557,1.634.544a.441.441,0,0,0,.072.019l3,.6a.6.6,0,0,0,.451-.089l1.365-.911a16.923,16.923,0,0,1,1.8,2.411l-2.951.984-3.2-.533L25.1,8.115a.6.6,0,0,0-.5-.267H21a.6.6,0,0,0-.424.176l-1.8,1.8a.6.6,0,0,0-.17.509l.6,4.2a.6.6,0,0,0,.36.466l4.2,1.8a.593.593,0,0,0,.382.031l2.142-.536,1.31.875v2.079a.6.6,0,0,0,.06.268L30,24.187v2.258a.6.6,0,0,0,.176.424l1.255,1.256A16.792,16.792,0,0,1,7.92,31.479Z" transform="translate(0 -0.05)" fill="#fff"/>
    </g>
  </g>
</svg>
